<?xml version="1.0" encoding="UTF-8"?>
<svg width="51px" height="22px" viewBox="0 0 51 22" version="1.1" xmlns="http://www.w3.org/2000/svg" xmlns:xlink="http://www.w3.org/1999/xlink">
    <defs>
        <polygon id="path-1" points="0.27223734 0.233223913 10.8368286 0.233223913 10.8368286 11.4782609 0.27223734 11.4782609"></polygon>
        <polygon id="path-3" points="0.000204180602 0.276368816 34.8129968 0.276368816 34.8129968 19.9545211 0.000204180602 19.9545211"></polygon>
    </defs>
    <g id="Symbols" stroke="none" stroke-width="1" fill="none" fill-rule="evenodd">
        <g id="top-bar/pp" transform="translate(-162.000000, -55.000000)">
            <g id="Group-7" transform="translate(162.000000, 55.000000)">
                <g id="Group-3" transform="translate(40.173913, 10.521739)">
                    <mask id="mask-2" fill="white">
                        <use xlink:href="#path-1"></use>
                    </mask>
                    <path d="M9.30765422,1.84735435 C10.3271939,2.92559348 10.8369637,4.25850652 10.8369637,5.85828913 C10.8369637,7.45735435 10.3271939,8.79098478 9.30765422,9.86420217 C8.28811458,10.9417239 7.03833453,11.4783326 5.55223734,11.4783326 C4.13365934,11.4783326 2.89805831,10.9266587 1.84948542,9.81757174 C0.796861381,8.71422391 0.27223734,7.39135435 0.27223734,5.85828913 C0.27223734,4.32020217 0.796861381,3.00163696 1.84948542,1.89326739 C2.89805831,0.789202174 4.13365934,0.233223913 5.55223734,0.233223913 C7.03833453,0.233223913 8.28811458,0.769115217 9.30765422,1.84735435" fill="#006666" mask="url(#mask-2)"></path>
                </g>
                <g id="Group-6">
                    <mask id="mask-4" fill="white">
                        <use xlink:href="#path-3"></use>
                    </mask>
                    <path d="M17.4066005,0.276230285 C0.000204180602,0.276230285 0.000204180602,19.9545211 0.000204180602,19.9545211 L34.8129968,19.9545211 C34.8129968,19.9545211 34.8129968,0.276230285 17.4066005,0.276230285 L17.4066005,0.276230285 Z M8.49752023,14.8233427 C8.58940151,12.9538705 8.96781622,11.2173877 9.62187475,9.61458711 C10.3923162,7.73541769 11.4976139,6.10698891 12.9466156,4.72583748 C13.0820554,4.72583748 13.3978547,4.68635622 13.8974166,4.59769655 C14.3962978,4.51388546 14.9149166,4.46955562 15.458037,4.46955562 C17.6774801,4.46955562 19.6022226,4.98211934 21.2309032,6.01832924 C22.8650286,7.05453913 24.1193781,8.51465307 25.0021189,10.4139094 C25.6132995,11.7209469 26.0107711,13.1914507 26.204062,14.8233427 L8.49752023,14.8233427 Z" fill="#006666" mask="url(#mask-4)"></path>
                </g>
            </g>
        </g>
    </g>
</svg>